<svg xmlns="http://www.w3.org/2000/svg" viewBox="0 0 640 512"><path fill="#4493f8" d="M0 128C0 92.7 28.7 64 64 64l192 0 48 0 16 0 256 0c35.3 0 64 28.7 64 64l0 256c0 35.3-28.7 64-64 64l-256 0-16 0-48 0L64 448c-35.3 0-64-28.7-64-64L0 128zm320 0l0 256 256 0 0-256-256 0zM178.3 175.9c-3.2-7.2-10.4-11.9-18.3-11.9s-15.1 4.7-18.3 11.9l-64 144c-4.5 10.1 .1 21.9 10.2 26.4s21.9-.1 26.4-10.2l8.9-20.1 73.6 0 8.9 20.1c4.5 10.1 16.3 14.6 26.4 10.2s14.6-16.3 10.2-26.4l-64-144zM160 233.2L179 276l-38 0 19-42.8zM448 164c11 0 20 9 20 20l0 4 44 0c11 0 20 9 20 20s-9 20-20 20l-2 0-1.6 4.5c-8.9 24.4-22.8 46.7-41.1 65.5l-1.4 1.4 7.9 7.9c7.8 7.8 7.8 20.5 0 28.3s-20.5 7.8-28.3 0l-7.9-7.9-7.9 7.9c-7.8 7.8-20.5 7.8-28.3 0s-7.8-20.5 0-28.3l7.9-7.9-3.7-3.7c-12.1-12.1-22.1-26.1-29.8-41.5l0 0c-4.9-9.8-.9-21.7 8.9-26.6s21.7-.9 26.6 8.9c5.6 11.2 12.9 21.5 21.7 30.3l3.7 3.7 .3-.3c13.4-14.1 23.8-31 30.6-49.6l-75.1 0c-11 0-20-9-20-20s9-20 20-20l52 0 0-4c0-11 9-20 20-20z"/></svg>
