<svg xmlns="http://www.w3.org/2000/svg" viewBox="0 0 1640 440" preserveAspectRatio="xMidYMid meet" role="img" aria-label="HarnessBench — Comparing Agentic Harnesses on Everyday Online Tasks">
  <defs>
    <linearGradient id="bg" x1="0" y1="0" x2="1" y2="1">
      <stop offset="0" stop-color="#0b1220"/>
      <stop offset="0.5" stop-color="#141a2b"/>
      <stop offset="1" stop-color="#1a1410"/>
    </linearGradient>
    <radialGradient id="warm" cx="0.15" cy="0.2" r="0.7">
      <stop offset="0" stop-color="#d97706" stop-opacity="0.25"/>
      <stop offset="1" stop-color="#d97706" stop-opacity="0"/>
    </radialGradient>
    <radialGradient id="cool" cx="0.95" cy="0.85" r="0.6">
      <stop offset="0" stop-color="#0ea5e9" stop-opacity="0.18"/>
      <stop offset="1" stop-color="#0ea5e9" stop-opacity="0"/>
    </radialGradient>
    <linearGradient id="amber" x1="0" y1="0" x2="1" y2="0">
      <stop offset="0" stop-color="#f59e0b"/>
      <stop offset="0.5" stop-color="#fbbf24"/>
      <stop offset="1" stop-color="#fcd34d"/>
    </linearGradient>
    <linearGradient id="accent" x1="0" y1="0" x2="1" y2="0">
      <stop offset="0" stop-color="#21bca8"/>
      <stop offset="0.33" stop-color="#fbbf24"/>
      <stop offset="0.66" stop-color="#fb923c"/>
      <stop offset="1" stop-color="#fcd34d"/>
    </linearGradient>
    <pattern id="grid" x="0" y="0" width="44" height="44" patternUnits="userSpaceOnUse">
      <path d="M44 0 L0 0 0 44" fill="none" stroke="#e4e8ef" stroke-opacity="0.06" stroke-width="1"/>
    </pattern>
  </defs>

  <rect width="1640" height="440" fill="url(#bg)"/>
  <rect width="1640" height="440" fill="url(#warm)"/>
  <rect width="1640" height="440" fill="url(#cool)"/>
  <rect width="1640" height="440" fill="url(#grid)"/>

  <rect x="100" y="118" width="180" height="3" rx="1.5" fill="url(#accent)" opacity="0.95"/>

  <text x="100" y="102" font-family="'Inter','SF Pro Text','Avenir Next',-apple-system,Segoe UI,sans-serif" font-size="18" font-weight="600" letter-spacing="2.8" fill="#94a3b8">AGENT&#160;HARNESS&#160;COMPARISON&#160;&#8226;&#160;153&#160;TASKS&#160;&#8226;&#160;6&#160;HARNESSES</text>

  <text x="100" y="232" font-family="'Iowan Old Style',Palatino,Georgia,'Times New Roman',serif" font-size="128" font-weight="700" fill="#e4e8ef" letter-spacing="-2">Harness<tspan fill="url(#amber)">Bench</tspan></text>

  <text x="100" y="300" font-family="'Iowan Old Style',Palatino,Georgia,'Times New Roman',serif" font-size="30" font-style="italic" fill="#94a3b8">The benchmark for comparing agentic harnesses on</text>
  <text x="100" y="338" font-family="'Iowan Old Style',Palatino,Georgia,'Times New Roman',serif" font-size="30" font-style="italic" fill="#94a3b8">everyday online tasks &#8212; same pipeline, orthogonal axis.</text>

  <g transform="translate(1160 110)" font-family="'Inter','SF Pro Text','Avenir Next',sans-serif" font-size="16" font-weight="600">
    <path d="M90 40 Q 180 20, 270 40" fill="none" stroke="#e4e8ef" stroke-opacity="0.25" stroke-width="1.5" stroke-dasharray="3 4"/>
    <path d="M90 130 Q 180 150, 270 130" fill="none" stroke="#e4e8ef" stroke-opacity="0.25" stroke-width="1.5" stroke-dasharray="3 4"/>
    <path d="M90 220 Q 180 200, 270 220" fill="none" stroke="#e4e8ef" stroke-opacity="0.25" stroke-width="1.5" stroke-dasharray="3 4"/>

    <g>
      <rect x="0" y="18" width="180" height="44" rx="22" fill="#1f2937" stroke="#fbbf24" stroke-width="1.5"/>
      <circle cx="22" cy="40" r="5" fill="#fbbf24"/>
      <text x="40" y="46" fill="#e4e8ef">openclaw</text>
    </g>
    <g>
      <rect x="200" y="18" width="180" height="44" rx="22" fill="#1f2937" stroke="#fbbf24" stroke-width="1.5"/>
      <circle cx="222" cy="40" r="5" fill="#fbbf24"/>
      <text x="240" y="46" fill="#e4e8ef">hermes</text>
    </g>
    <g>
      <rect x="0" y="108" width="180" height="44" rx="22" fill="#1f2937" stroke="#f59e0b" stroke-width="1.5"/>
      <circle cx="22" cy="130" r="5" fill="#f59e0b"/>
      <text x="40" y="136" fill="#e4e8ef">claw-code</text>
    </g>
    <g>
      <rect x="200" y="108" width="180" height="44" rx="22" fill="#1f2937" stroke="#fbbf24" stroke-width="1.5"/>
      <circle cx="222" cy="130" r="5" fill="#fbbf24"/>
      <text x="240" y="136" fill="#e4e8ef">browser-use</text>
    </g>
    <g>
      <rect x="0" y="198" width="180" height="44" rx="22" fill="#0c1a2e" stroke="#38bdf8" stroke-width="1.5"/>
      <circle cx="22" cy="220" r="5" fill="#38bdf8"/>
      <text x="40" y="226" fill="#e4e8ef">stagehand</text>
      <text x="150" y="226" font-size="11" font-weight="700" fill="#38bdf8">&#9729;</text>
    </g>
    <g>
      <rect x="200" y="198" width="180" height="44" rx="22" fill="#0c1a2e" stroke="#38bdf8" stroke-width="1.5"/>
      <circle cx="222" cy="220" r="5" fill="#38bdf8"/>
      <text x="240" y="226" fill="#e4e8ef">coze-studio</text>
      <text x="350" y="226" font-size="11" font-weight="700" fill="#38bdf8">&#9729;</text>
    </g>
  </g>

  <rect x="100" y="390" width="1440" height="1" fill="#e4e8ef" fill-opacity="0.12"/>
  <text x="100" y="415" font-family="'Inter','SF Pro Text',sans-serif" font-size="14" fill="#94a3b8">pip install harness-bench &#160;&#8226;&#160; same 5-layer recording as ClawBench &#160;&#8226;&#160; cloud harnesses opt-in</text>
</svg>
